Coordinates
version=1
nRows=8
nColumns=42
inDegrees=yes

Units are S.I. units (second, meters, Newtons, ...)
If the header above contains a line with 'inDegrees', this indicates whether rotational values are in degrees (yes) or radians (no).

endheader
time	pelvis_tilt	pelvis_list	pelvis_rotation	pelvis_tx	pelvis_ty	pelvis_tz	hip_flexion_r	hip_adduction_r	hip_rotation_r	knee_angle_r	knee_adduction_r	knee_angle_r_beta	ankle_angle_r	subtalar_angle_r	mtp_angle_r	hip_flexion_l	hip_adduction_l	hip_rotation_l	knee_angle_l	knee_adduction_l	knee_angle_l_beta	ankle_angle_l	subtalar_angle_l	mtp_angle_l	lumbar_extension	lumbar_bending	lumbar_rotation	arm_flex_r	arm_add_r	arm_rot_r	elbow_flex_r	pro_sup_r	wrist_flex_r	wrist_dev_r	arm_flex_l	arm_add_l	arm_rot_l	elbow_flex_l	pro_sup_l	wrist_flex_l	wrist_dev_l
      0.40000000	      8.88566001	      3.40503569	     -2.30582369	     -1.55515784	      0.90156836	      0.17029375	      1.59293855	     -6.87240118	      0.60181439	     65.63906647	      6.60399271	      1.14561783	     -1.25074835	    -12.16463880	     -9.61763021	      4.83840740	      9.61465588	    -17.72268484	     26.03042637	     -4.40873357	      0.45431665	     19.15718330	     18.59008329	     -9.61763021	    -18.66694053	     -2.73146023	     -2.43273958	      3.17371117	     -9.78518506	     -9.48314187	     29.66856664	     90.00000001	      0.00000000	      0.00000000	     -6.85783947	     -7.01865126	    -27.39992946	     39.15835732	     90.00000001	      0.00000000	      0.00000000
      0.41000000	      8.99580878	      3.22339026	     -2.41823832	     -1.54794675	      0.90238618	      0.17037165	      3.43934859	     -6.43535697	      0.64649958	     66.80580328	      5.80996928	      1.16598123	      0.39786309	    -13.24731387	     -9.58480553	      3.82377049	      9.41435100	    -17.54883796	     25.49805706	     -4.13468109	      0.44502505	     19.50553104	     18.69202586	     -9.58480553	    -18.94432178	     -2.54371016	     -2.56793841	      3.04082340	     -9.92596092	     -9.60643522	     29.41002853	     90.00000001	      0.00000000	      0.00000000	     -6.50073140	     -7.16118252	    -27.12231052	     39.37996235	     90.00000001	      0.00000000	      0.00000000
      0.42000000	      9.06873118	      3.11352795	     -2.46210483	     -1.54080834	      0.90310870	      0.17023957	      5.26821824	     -6.12990409	      0.77210925	     67.68264499	      5.26648607	      1.18128500	      1.81238419	    -14.43292578	     -9.55088429	      2.86996787	      9.34959612	    -17.31839786	     24.95356589	     -3.93268808	      0.43552188	     19.81682534	     18.84514137	     -9.55088429	    -19.18201009	     -2.39663105	     -2.80017018	      2.93645637	    -10.03449169	     -9.90290533	     29.15256380	     90.00000001	      0.00000000	      0.00000000	     -6.17212534	     -7.34638486	    -26.67697245	     39.57500893	     90.00000001	      0.00000000	      0.00000000
      0.43000000	      9.13153890	      2.93883051	     -2.46172831	     -1.53377054	      0.90384660	      0.17013975	      7.02075997	     -5.70054645	      0.96341025	     68.18513555	      4.82832862	      1.19005512	      2.95340810	    -15.27424178	     -9.52270414	      1.95027692	      9.20566095	    -17.03582524	     24.44550953	     -3.75062322	      0.42665463	     20.07040091	     18.93201778	     -9.52270414	    -19.42797325	     -2.17721546	     -3.06034628	      2.82669118	    -10.14708974	    -10.20229017	     28.98453284	     90.00000001	      0.00000000	      0.00000000	     -5.83181423	     -7.54175982	    -26.25506769	     39.74691669	     90.00000001	      0.00000000	      0.00000000
      0.44000000	      9.16967293	      2.78131786	     -2.42069916	     -1.52671685	      0.90453311	      0.17000364	      8.69796848	     -5.29719514	      1.18987530	     68.34422012	      4.53026710	      1.19283167	      3.98490435	    -16.09239759	     -9.49378900	      1.04359207	      9.09156664	    -16.63389973	     23.90606416	     -3.54678360	      0.41723953	     20.35512779	     19.00775304	     -9.49378900	    -19.62651317	     -1.96094172	     -3.32983606	      2.68767408	    -10.22189666	    -10.59394197	     28.82697161	     90.00000001	      0.00000000	      0.00000000	     -5.49217048	     -7.76002023	    -25.72530045	     39.87939778	     90.00000001	      0.00000000	      0.00000000
      0.45000000	      9.20067570	      2.59031120	     -2.28692241	     -1.51978890	      0.90520878	      0.16973967	     10.25245517	     -4.90451508	      1.41154562	     68.13487277	      4.40316584	      1.18917787	      4.73944340	    -16.60897024	     -9.46452686	      0.20422033	      8.94800738	    -16.18446752	     23.43267445	     -3.40358826	      0.40897732	     20.59939266	     19.01053592	     -9.46452686	    -19.84511187	     -1.68293256	     -3.66247670	      2.55484896	    -10.29055497	    -11.03234892	     28.74551967	     90.00000001	      0.00000000	      0.00000000	     -5.12554782	     -7.98994558	    -25.15084351	     39.99617596	     90.00000001	      0.00000000	      0.00000000
      0.46000000	      9.25687185	      2.39600877	     -2.09826154	     -1.51281266	      0.90592821	      0.16941207	     11.63720738	     -4.52987415	      1.62038560	     67.54632191	      4.37729219	      1.17890571	      5.32556728	    -16.96944777	     -9.43075206	     -0.64700742	      8.80366882	    -15.60457281	     23.00283861	     -3.23130473	      0.40147527	     20.85526997	     18.95026825	     -9.43075206	    -20.07086541	     -1.38664669	     -4.01153270	      2.37292326	    -10.33150493	    -11.61063890	     28.68457589	     90.00000001	      0.00000000	      0.00000000	     -4.75933952	     -8.24382657	    -24.44649257	     40.06840561	     90.00000001	      0.00000000	      0.00000000
      0.47000000	      9.35994945	      2.17989426	     -1.82986338	     -1.50592690	      0.90680866	      0.16910373	     12.79921663	     -4.16965240	      1.59242114	     66.52956238	      4.28821916	      1.16115991	      5.55992894	    -17.11960138	     -9.30404402	     -1.57939623	      8.63753427	    -14.77341558	     22.51521063	     -3.00342693	      0.39296456	     20.89963371	     18.37848279	     -9.30404402	    -20.37963465	     -1.04876722	     -4.34384084	      2.33639823	    -10.10593435	    -13.66930627	     28.58196288	     90.00000001	      0.00000000	      0.00000000	     -4.42649835	     -8.67860757	    -23.03639493	     40.14942987	     90.00000001	      0.00000000	      0.00000000
